<svg width="200" height="150" viewBox="0 0 800 600" fill="none" xmlns="http://www.w3.org/2000/svg" data-reactroot="">
<path d="M723.417 330.747C689.466 391.859 701.843 518.355 630.617 554.825C561.446 590.243 311.75 579.723 207.36 579.723C114.996 579.723 128.714 488.233 62.5015 459.762C-23.1767 422.922 37.6052 340.367 76.0825 276.426C119.087 224.933 56.9141 131.823 128.14 95.3528C197.311 59.9351 349.68 165.519 454.071 165.519C558.462 165.519 729.923 61.4001 770.949 127.04C804.9 181.361 743.788 274.162 723.417 330.747Z" fill="#ebf5f6" fill-opacity="0.15"></path>
<path d="M761.965 515.308H72.1904V528.888H761.965V515.308Z" fill="#4baeb4"></path>
<path d="M761.965 515.308H72.1904V528.888H761.965V515.308Z" fill="black" fill-opacity="0.3"></path>
<path d="M136.132 446.839L72.1901 515.307H761.965L679.35 446.839H136.132Z" fill="#4baeb4"></path>
<path d="M364.492 465.26L193.911 464.117C191.616 464.108 189.544 465.486 188.664 467.605L180.987 487.089C179.75 490.067 182.186 493.381 185.41 493.386L365.376 493.504C368.639 493.51 371.425 491.419 371.228 488.161L370.119 470.577C369.939 467.598 367.476 465.271 364.492 465.26Z" fill="#ebf5f6"></path>
<path d="M364.512 464.128L194.788 463.496C192.494 463.488 190.421 464.866 189.541 466.985L181.22 487.023C179.983 490 182.196 492.813 185.42 492.82C185.421 492.82 185.42 492.82 185.422 492.82C185.469 492.82 362.123 492.932 365.386 492.938C368.649 492.943 371.433 490.852 371.236 487.595L370.139 469.445C369.959 466.466 367.496 464.139 364.512 464.128Z" fill="black"></path>
<path d="M364.53 462.997L194.806 462.366C192.512 462.357 190.44 463.735 189.56 465.854L181.238 485.892C180.001 488.87 182.186 492.149 185.411 492.155L365.597 492.464C368.86 492.469 371.451 489.721 371.255 486.464L370.157 468.314C369.977 465.335 367.514 463.008 364.53 462.997Z" fill="white" fill-opacity="0.46"></path>
<path d="M364.548 461.865L194.825 461.234C192.53 461.225 190.458 462.603 189.578 464.722L181.016 485.391C179.779 488.369 181.964 491.648 185.189 491.654L365.404 491.806C368.667 491.812 371.259 489.064 371.062 485.806L370.175 467.182C369.995 464.203 367.533 461.876 364.548 461.865Z" fill="#ebf5f6"></path>
<path d="M271.446 474.505C274.136 474.55 275.703 473.991 276.269 474C276.835 474.009 278.754 474.723 281.639 474.672C284.524 474.622 286.611 473.731 286.611 473.731C286.611 473.731 283.221 473.194 283.239 472.069C283.26 470.803 287.092 470.282 287.092 470.282C287.092 470.282 284.747 468.002 281.327 467.801C279.346 467.685 278.942 468.224 276.931 468.168C275.131 468.117 274.815 467.695 272.408 467.655C270.001 467.616 266.588 469.508 265.696 471.1C264.967 472.403 267.341 474.438 271.446 474.505Z" fill="black" fill-opacity="0.2"></path>
<path d="M277.368 476.063C276.386 475.512 276.258 474.682 276.258 474.682C276.258 474.682 278.945 474.92 280.071 475.328C281.197 475.736 282.031 476.675 281.604 476.814C281.177 476.954 278.35 476.615 277.368 476.063Z" fill="black" fill-opacity="0.2"></path>
<path d="M271.446 474.505C274.136 474.55 275.703 473.991 276.269 474C276.835 474.009 278.754 474.723 281.639 474.672C284.524 474.622 286.611 473.731 286.611 473.731C286.611 473.731 283.221 473.194 283.239 472.069C283.26 470.803 287.092 470.282 287.092 470.282C287.092 470.282 284.747 468.002 281.327 467.801C279.346 467.685 278.942 468.224 276.931 468.168C275.131 468.117 274.815 467.695 272.408 467.655C270.001 467.616 266.588 469.508 265.696 471.1C264.967 472.403 267.341 474.438 271.446 474.505Z" stroke="black" stroke-opacity="0.2" stroke-width="0.590891"></path>
<path d="M277.368 476.063C276.386 475.512 276.258 474.682 276.258 474.682C276.258 474.682 278.945 474.92 280.071 475.328C281.197 475.736 282.031 476.675 281.604 476.814C281.177 476.954 278.35 476.615 277.368 476.063Z" stroke="black" stroke-opacity="0.2" stroke-width="0.590891"></path>
<path d="M261.751 537.942C237.419 553.309 243.078 584.342 243.078 584.342H591.077C591.077 584.342 599.566 518.136 566.747 523.795C533.927 529.454 477.343 558.879 408.874 558.879C340.405 558.879 286.083 522.575 261.751 537.942Z" fill="#ebf5f6"></path>
<path d="M261.751 537.942C237.419 553.309 243.078 584.342 243.078 584.342H591.077C591.077 584.342 599.566 518.136 566.747 523.795C533.927 529.454 477.343 558.879 408.874 558.879C340.405 558.879 286.083 522.575 261.751 537.942Z" fill="black" fill-opacity="0.3"></path>
<path d="M261.749 543.601C240.248 557.181 243.076 590.001 243.076 590.001H591.076C591.076 590.001 595.604 523.163 566.745 529.454C537.887 535.745 477.342 564.538 408.872 564.538C340.403 564.538 283.251 530.021 261.749 543.601Z" fill="#ebf5f6"></path>
<path d="M605.223 408.361C605.223 408.361 609.184 413.454 627.292 413.454C645.399 413.454 647.097 408.361 647.097 408.361C647.097 409.59 647.097 441.692 647.097 459.3C647.097 465.55 642.03 470.605 635.78 470.605H616.541C610.29 470.605 605.223 465.552 605.223 459.302C605.223 441.582 605.223 409.182 605.223 408.361Z" fill="#ebf5f6"></path>
<path d="M647.096 459.299V408.36C647.096 408.36 646.478 410.216 642.003 411.687C642.003 411.687 641.941 430.392 640.872 442.312C640.355 448.072 641.424 451.696 639.174 457.024C636.317 463.791 626.16 470.604 626.16 470.604H635.779C642.029 470.604 647.096 465.55 647.096 459.299Z" fill="black" fill-opacity="0.1"></path>
<path d="M627.292 413.454C609.184 413.454 605.223 408.361 605.223 408.361C605.223 406.098 615.409 404.966 626.16 404.966C636.911 404.966 647.097 407.229 647.097 408.361C647.097 408.361 645.399 413.454 627.292 413.454Z" fill="#ebf5f6"></path>
<path d="M627.292 413.454C609.184 413.454 605.223 408.361 605.223 408.361C605.223 406.098 615.409 404.966 626.16 404.966C636.911 404.966 647.097 407.229 647.097 408.361C647.097 408.361 645.399 413.454 627.292 413.454Z" fill="black" fill-opacity="0.15"></path>
<path d="M605.777 408.221C605.774 408.217 605.77 408.214 605.767 408.211C605.806 408.141 605.876 408.054 606.001 407.951C606.239 407.753 606.621 407.547 607.16 407.343C608.232 406.938 609.799 406.591 611.732 406.309C615.59 405.748 620.798 405.466 626.16 405.466C631.504 405.466 636.708 406.029 640.571 406.731C642.504 407.082 644.088 407.466 645.18 407.828C645.73 408.009 646.133 408.179 646.391 408.325C646.439 408.352 646.479 408.377 646.512 408.399C646.444 408.505 646.339 408.647 646.182 408.817C645.789 409.241 645.065 409.842 643.77 410.455C641.175 411.685 636.306 412.954 627.292 412.954C618.283 412.954 612.831 411.686 609.65 410.442C608.06 409.82 607.037 409.203 606.42 408.753C606.111 408.528 605.904 408.344 605.777 408.221ZM646.635 408.5C646.635 408.5 646.634 408.499 646.632 408.496C646.634 408.499 646.635 408.5 646.635 408.5Z" stroke="black" stroke-opacity="0.05"></path>
<path fill-rule="evenodd" clip-rule="evenodd" d="M649.278 424.31C648.286 425.51 646.511 425.684 645.305 424.697C644.096 423.707 643.918 421.925 644.907 420.716L647.097 422.507C644.907 420.716 644.909 420.714 644.909 420.714L644.91 420.712L644.913 420.709L644.92 420.7L644.938 420.678C644.952 420.662 644.97 420.641 644.991 420.616C645.033 420.567 645.09 420.503 645.16 420.425C645.3 420.27 645.496 420.062 645.742 419.821C646.232 419.343 646.944 418.713 647.836 418.111C649.566 416.946 652.349 415.645 655.613 416.346C658.27 416.917 660.291 418.268 661.718 420.175C663.091 422.01 663.805 424.211 664.196 426.371C664.79 429.651 664.725 433.509 664.669 436.849C664.653 437.775 664.638 438.66 664.638 439.483C664.638 443.261 664.501 447.192 663.8 450.523C663.12 453.748 661.759 457.159 658.686 458.915C655.978 460.463 652.631 460.344 650.434 460.063C649.255 459.913 648.219 459.688 647.477 459.502C647.104 459.409 646.8 459.324 646.584 459.26C646.476 459.229 646.389 459.202 646.327 459.182C646.295 459.173 646.27 459.165 646.25 459.158L646.226 459.151L646.214 459.147L646.213 459.146C646.213 459.146 646.212 459.146 647.097 456.459L646.212 459.146C644.727 458.657 643.921 457.057 644.41 455.573C644.898 454.091 646.495 453.284 647.978 453.77L647.981 453.771L648.014 453.782C648.048 453.792 648.104 453.809 648.18 453.831C648.331 453.876 648.561 453.941 648.852 454.014C649.438 454.16 650.249 454.335 651.152 454.45C653.116 454.702 654.862 454.583 655.879 454.002C656.766 453.495 657.669 452.174 658.263 449.356C658.834 446.644 658.98 443.218 658.98 439.483C658.98 438.429 658.996 437.386 659.013 436.361C659.064 433.12 659.113 430.056 658.628 427.38C658.321 425.684 657.836 424.432 657.187 423.565C656.591 422.768 655.765 422.166 654.425 421.878C653.315 421.64 652.136 422.037 650.999 422.804C650.458 423.168 650.01 423.563 649.697 423.868C649.543 424.019 649.427 424.142 649.356 424.221C649.321 424.26 649.297 424.288 649.285 424.301C649.281 424.306 649.278 424.31 649.278 424.31Z" fill="#ebf5f6"></path>
<path fill-rule="evenodd" clip-rule="evenodd" d="M649.278 424.31C648.286 425.51 646.511 425.684 645.305 424.697C644.096 423.707 643.918 421.925 644.907 420.716L647.097 422.507C644.907 420.716 644.909 420.714 644.909 420.714L644.91 420.712L644.913 420.709L644.92 420.7L644.938 420.678C644.952 420.662 644.97 420.641 644.991 420.616C645.033 420.567 645.09 420.503 645.16 420.425C645.3 420.27 645.496 420.062 645.742 419.821C646.232 419.343 646.944 418.713 647.836 418.111C649.566 416.946 652.349 415.645 655.613 416.346C658.27 416.917 660.291 418.268 661.718 420.175C663.091 422.01 663.805 424.211 664.196 426.371C664.79 429.651 664.725 433.509 664.669 436.849C664.653 437.775 664.638 438.66 664.638 439.483C664.638 443.261 664.501 447.192 663.8 450.523C663.12 453.748 661.759 457.159 658.686 458.915C655.978 460.463 652.631 460.344 650.434 460.063C649.255 459.913 648.219 459.688 647.477 459.502C647.104 459.409 646.8 459.324 646.584 459.26C646.476 459.229 646.389 459.202 646.327 459.182C646.295 459.173 646.27 459.165 646.25 459.158L646.226 459.151L646.214 459.147L646.213 459.146C646.213 459.146 646.212 459.146 647.097 456.459L646.212 459.146C644.727 458.657 643.921 457.057 644.41 455.573C644.898 454.091 646.495 453.284 647.978 453.77L647.981 453.771L648.014 453.782C648.048 453.792 648.104 453.809 648.18 453.831C648.331 453.876 648.561 453.941 648.852 454.014C649.438 454.16 650.249 454.335 651.152 454.45C653.116 454.702 654.862 454.583 655.879 454.002C656.766 453.495 657.669 452.174 658.263 449.356C658.834 446.644 658.98 443.218 658.98 439.483C658.98 438.429 658.996 437.386 659.013 436.361C659.064 433.12 659.113 430.056 658.628 427.38C658.321 425.684 657.836 424.432 657.187 423.565C656.591 422.768 655.765 422.166 654.425 421.878C653.315 421.64 652.136 422.037 650.999 422.804C650.458 423.168 650.01 423.563 649.697 423.868C649.543 424.019 649.427 424.142 649.356 424.221C649.321 424.26 649.297 424.288 649.285 424.301C649.281 424.306 649.278 424.31 649.278 424.31Z" fill="black" fill-opacity="0.1"></path>
<path d="M517.769 479.326C517.945 476.335 520.422 474 523.418 474H642.782C645.33 474 647.564 475.703 648.239 478.161L653.054 495.702C654.043 499.304 651.332 502.858 647.597 502.858H522.386C519.13 502.858 516.546 500.118 516.737 496.868L517.769 479.326Z" fill="#133e56"></path>
<path d="M517.769 479.326C517.945 476.335 520.422 474 523.418 474H642.782C645.33 474 647.564 475.703 648.239 478.161L653.054 495.702C654.043 499.304 651.332 502.858 647.597 502.858H522.386C519.13 502.858 516.546 500.118 516.737 496.868L517.769 479.326Z" fill="black" fill-opacity="0.3"></path>
<path d="M517.769 478.194C517.945 475.204 520.422 472.868 523.418 472.868H642.782C645.331 472.868 647.564 474.571 648.239 477.029L653.054 494.57C654.043 498.172 651.333 501.727 647.598 501.727H522.386C519.13 501.727 516.546 498.986 516.737 495.736L517.769 478.194Z" fill="#133e56"></path>
<path d="M401.516 434.956V413.453H471.116C471.116 413.453 471.115 429.863 471.116 433.258V433.267C471.117 436.656 471.118 438.357 472.815 445.141C474.513 451.931 481.302 464.524 477.341 469.473C475.269 472.061 459.234 474.383 432.073 473.999C404.912 473.616 393.219 471.092 391.33 469.473C387.369 466.077 397.556 449.668 399.82 445.141C402.083 440.614 401.516 437.785 401.516 434.956Z" fill="black" fill-opacity="0.33"></path>
<path d="M401.516 434.956V413.453H471.116C471.116 413.453 471.115 429.863 471.116 433.258V433.267C471.117 436.656 471.118 438.357 472.815 445.141C474.513 451.931 481.302 463.392 477.341 468.341C475.269 470.929 459.234 473.251 432.073 472.868C404.912 472.484 393.219 469.96 391.33 468.341C387.369 464.946 397.556 449.668 399.82 445.141C402.083 440.614 401.516 437.785 401.516 434.956Z" fill="#C4C4C4"></path>
<path d="M399.82 445.141C402.083 440.614 401.516 441.18 401.516 438.351C401.516 438.351 423.008 440.048 436.6 440.048C450.192 440.048 471.126 438.351 471.126 438.351C471.127 441.74 471.118 438.356 472.815 445.141C472.815 445.141 450.853 446.838 436.6 446.838C422.347 446.838 399.82 445.141 399.82 445.141Z" fill="black" fill-opacity="0.03"></path>
<path d="M264.678 404.927L267.314 219.835C267.367 216.123 271.523 212.01 275.236 212.01H591.078C594.828 212.01 599 216.182 599 219.932V407.737C599 411.51 594.792 415.691 591.02 415.658L272.541 412.946C268.776 412.914 264.624 408.692 264.678 404.927Z" fill="#A9A9A9"></path>
<path d="M265.81 404.927L268.447 219.835C268.5 216.123 271.524 213.141 275.236 213.141H591.078C594.828 213.141 597.868 216.181 597.868 219.931V407.736C597.868 411.509 594.793 414.559 591.02 414.526L272.542 411.814C268.777 411.782 265.756 408.692 265.81 404.927Z" fill="black"></path>
<path d="M279.905 393.603L283.209 228.94C283.234 227.708 284.24 226.722 285.472 226.722H580.063C581.305 226.722 582.315 227.724 582.326 228.966L583.703 393.629C583.713 394.887 582.697 395.912 581.439 395.912H282.168C280.9 395.912 279.88 394.87 279.905 393.603Z" fill="#ebf5f6"></path>
<path fill-rule="evenodd" clip-rule="evenodd" d="M482.911 259.619C485.055 262.695 484.299 266.928 481.223 269.072L442.126 296.321H385.225L320.028 333.892C316.779 335.764 312.627 334.648 310.754 331.399C308.882 328.15 309.998 323.998 313.247 322.125L381.592 282.74H437.861L473.457 257.931C476.534 255.786 480.766 256.542 482.911 259.619Z" fill="#4baeb4"></path>
<path d="M558.257 493.804C554.861 488.712 557.124 480.224 557.124 480.224C557.124 480.224 565.049 478.526 572.97 478.526C580.891 478.527 589.944 480.224 589.944 480.224C589.944 480.224 590.51 489.278 587.682 493.804C585.265 497.674 578.492 497.599 572.97 497.765C568.442 497.902 560.954 497.849 558.257 493.804Z" fill="#ebf5f6"></path>
<path d="M558.257 493.804C554.861 488.712 557.124 480.224 557.124 480.224C557.124 480.224 565.049 477.394 572.97 477.395C580.891 477.395 589.944 480.224 589.944 480.224C589.944 480.224 590.51 489.277 587.682 493.804C585.265 497.674 578.492 497.599 572.97 497.765C568.442 497.902 560.954 497.849 558.257 493.804Z" fill="black" fill-opacity="0.5"></path>
<path d="M558.258 492.673C555.645 488.573 557.693 480.224 557.693 480.224C557.693 480.224 565.05 477.394 572.971 477.395C580.892 477.395 589.38 480.224 589.38 480.224C589.38 480.224 590.157 488.344 587.683 492.673C585.418 496.634 578.493 496.467 572.971 496.634C568.443 496.77 560.87 496.772 558.258 492.673Z" fill="#ebf5f6"></path>
<path d="M667.468 19.0539C667.468 15.3038 670.508 12.2637 674.258 12.2637H755.741C759.491 12.2637 762.531 15.3038 762.531 19.0539V57.5319C762.531 61.282 759.491 64.3221 755.741 64.3221H700.717C699.689 64.3221 698.675 64.5555 697.751 65.0045L681.614 73.9416L683.312 64.3221H674.258C670.508 64.3221 667.468 61.282 667.468 57.5319V19.0539Z" fill="#133e56"></path>
<path d="M666.335 17.9216C666.335 14.1714 669.376 11.1313 673.126 11.1313H754.609C758.359 11.1313 761.399 14.1714 761.399 17.9216V56.3996C761.399 60.1497 758.359 63.1898 754.609 63.1898H699.585C698.557 63.1898 697.543 63.4231 696.618 63.8722L680.482 72.8093L682.179 63.1898H673.126C669.376 63.1898 666.335 60.1497 666.335 56.3996V17.9216Z" fill="#4baeb4"></path>
<ellipse cx="696.892" cy="38.8584" rx="4.52682" ry="3.96097" fill="#78D2EE"></ellipse>
<ellipse cx="713.867" cy="38.8584" rx="4.52682" ry="3.96097" fill="#78D2EE"></ellipse>
<ellipse cx="730.843" cy="38.8584" rx="4.52682" ry="3.96097" fill="#78D2EE"></ellipse>
<path d="M549.77 11.1313H468.287C464.537 11.1313 461.497 14.1714 461.497 17.9216V56.3996C461.497 60.1497 464.537 63.1898 468.287 63.1898H477.341H494.746H549.77C553.52 63.1898 556.56 60.1497 556.56 56.3996V17.9216C556.56 14.1714 553.52 11.1313 549.77 11.1313Z" fill="#4baeb4"></path>
<path d="M548.638 10H467.156C463.405 10 460.365 13.0401 460.365 16.7902V55.2682C460.365 59.0184 463.405 62.0585 467.156 62.0585H476.209H493.615H548.638C552.388 62.0585 555.429 59.0184 555.429 55.2682V16.7902C555.429 13.0401 552.388 10 548.638 10Z" fill="#133e56"></path>
<ellipse cx="473.946" cy="20.7515" rx="4.52682" ry="3.96097" fill="#78D2EE"></ellipse>
<ellipse cx="473.946" cy="34.3321" rx="4.52682" ry="3.96097" fill="#78D2EE"></ellipse>
<ellipse cx="473.946" cy="47.9121" rx="4.52682" ry="3.96097" fill="#78D2EE"></ellipse>
<path fill-rule="evenodd" clip-rule="evenodd" d="M481.868 20.7513C481.868 20.1263 482.374 19.6196 482.999 19.6196H545.809C546.434 19.6196 546.941 20.1263 546.941 20.7513C546.941 21.3764 546.434 21.883 545.809 21.883H482.999C482.374 21.883 481.868 21.3764 481.868 20.7513ZM481.868 34.8977C481.868 34.2726 482.374 33.766 482.999 33.766H545.809C546.434 33.766 546.941 34.2726 546.941 34.8977C546.941 35.5227 546.434 36.0294 545.809 36.0294H482.999C482.374 36.0294 481.868 35.5227 481.868 34.8977ZM480.736 48.4781C480.736 47.8531 481.242 47.3464 481.868 47.3464H544.677C545.302 47.3464 545.809 47.8531 545.809 48.4781C545.809 49.1032 545.302 49.6098 544.677 49.6098H481.868C481.242 49.6098 480.736 49.1032 480.736 48.4781Z" fill="#ebf5f6"></path>
<path d="M750.082 102.8H668.599C664.849 102.8 661.809 105.84 661.809 109.59V148.068C661.809 151.818 664.849 154.858 668.599 154.858H677.653H695.058H750.082C753.832 154.858 756.872 151.818 756.872 148.068V109.59C756.872 105.84 753.832 102.8 750.082 102.8Z" fill="#4baeb4"></path>
<path d="M748.95 101.668H667.467C663.717 101.668 660.677 104.708 660.677 108.458V146.936C660.677 150.686 663.717 153.726 667.467 153.726H676.521H693.927H748.95C752.7 153.726 755.74 150.686 755.74 146.936V108.458C755.74 104.708 752.7 101.668 748.95 101.668Z" fill="#133e56"></path>
<path d="M667.467 153.727H676.521H693.927H748.95C752.7 153.727 755.74 150.687 755.74 146.936H743.857L721.223 116.946L696.892 146.936L685.574 129.395L672.56 146.936H660.677C660.677 150.687 663.717 153.727 667.467 153.727Z" fill="#ebf5f6"></path>
<ellipse cx="686.706" cy="119.21" rx="4.52682" ry="3.96097" fill="#78D2EE"></ellipse>
<path d="M332.483 15.6587H251C247.25 15.6587 244.21 18.6988 244.21 22.4489V60.9269C244.21 64.6771 247.25 67.7172 251 67.7172H260.054H277.459H332.483C336.233 67.7172 339.273 64.6771 339.273 60.9269V22.4489C339.273 18.6988 336.233 15.6587 332.483 15.6587Z" fill="#4baeb4"></path>
<path d="M331.351 14.5269H249.868C246.118 14.5269 243.078 17.5669 243.078 21.3171V59.7951C243.078 63.5452 246.118 66.5853 249.868 66.5853H258.922H276.327H331.351C335.101 66.5853 338.141 63.5452 338.141 59.7951V21.3171C338.141 17.5669 335.101 14.5269 331.351 14.5269Z" fill="#ebf5f6"></path>
<ellipse cx="265.712" cy="41.1216" rx="4.52682" ry="3.96097" fill="#005B9D"></ellipse>
<ellipse cx="312.112" cy="41.1216" rx="4.52682" ry="3.96097" fill="#005B9D"></ellipse>
<path fill-rule="evenodd" clip-rule="evenodd" d="M298.835 23.8205C299.641 24.3008 299.904 25.3428 299.424 26.148L280.185 58.4016C279.704 59.2068 278.662 59.4702 277.857 58.9899C277.052 58.5096 276.789 57.4676 277.269 56.6624L296.508 24.4088C296.988 23.6036 298.03 23.3402 298.835 23.8205Z" fill="#4baeb4"></path>
<path d="M411.702 102.8H330.219C326.469 102.8 323.428 105.84 323.428 109.59V148.068C323.428 151.818 326.469 154.858 330.219 154.858H339.272H356.678H411.702C415.452 154.858 418.492 151.818 418.492 148.068V109.59C418.492 105.84 415.452 102.8 411.702 102.8Z" fill="#4baeb4"></path>
<path d="M410.57 101.668H329.087C325.337 101.668 322.297 104.708 322.297 108.458V146.936C322.297 150.686 325.337 153.726 329.087 153.726H338.141H355.547H410.57C414.32 153.726 417.36 150.686 417.36 146.936V108.458C417.36 104.708 414.32 101.668 410.57 101.668Z" fill="#ebf5f6"></path>
<path fill-rule="evenodd" clip-rule="evenodd" d="M380.318 109.83C381.123 110.31 381.387 111.352 380.906 112.157L361.667 144.411C361.187 145.216 360.145 145.479 359.34 144.999C358.535 144.519 358.271 143.477 358.752 142.672L377.991 110.418C378.471 109.613 379.513 109.349 380.318 109.83Z" fill="#133e56"></path>
<path fill-rule="evenodd" clip-rule="evenodd" d="M351.201 113.405C351.907 114.023 351.979 115.095 351.361 115.801L340.524 128.186L351.284 138.946C351.947 139.609 351.947 140.684 351.284 141.347C350.621 142.01 349.546 142.01 348.883 141.347L335.877 128.341L348.806 113.565C349.423 112.86 350.496 112.788 351.201 113.405ZM391.376 113.432C392.067 112.798 393.14 112.845 393.774 113.536L407.347 128.343L393.695 141.374C393.017 142.022 391.942 141.997 391.295 141.318C390.647 140.64 390.672 139.566 391.35 138.918L402.596 128.184L391.271 115.83C390.638 115.139 390.684 114.065 391.376 113.432Z" fill="#133e56"></path>
<path d="M496.579 109.59C496.579 105.84 499.62 102.8 503.37 102.8H584.853C588.603 102.8 591.643 105.84 591.643 109.59V148.068C591.643 151.818 588.603 154.858 584.853 154.858H529.829C528.801 154.858 527.787 155.092 526.862 155.541L510.726 164.478L512.423 154.858H503.37C499.62 154.858 496.579 151.818 496.579 148.068V109.59Z" fill="#133e56"></path>
<path d="M495.448 108.458C495.448 104.708 498.488 101.668 502.238 101.668H583.721C587.471 101.668 590.511 104.708 590.511 108.458V146.936C590.511 150.686 587.471 153.726 583.721 153.726H528.698C527.67 153.726 526.655 153.96 525.731 154.409L509.594 163.346L511.292 153.726H502.238C498.488 153.726 495.448 150.686 495.448 146.936V108.458Z" fill="#4baeb4"></path>
<path fill-rule="evenodd" clip-rule="evenodd" d="M510.726 115.248C510.726 114.623 511.233 114.117 511.858 114.117H574.668C575.293 114.117 575.799 114.623 575.799 115.248C575.799 115.873 575.293 116.38 574.668 116.38H511.858C511.233 116.38 510.726 115.873 510.726 115.248ZM510.726 122.604C510.726 121.979 511.233 121.473 511.858 121.473H574.668C575.293 121.473 575.799 121.979 575.799 122.604C575.799 123.23 575.293 123.736 574.668 123.736H511.858C511.233 123.736 510.726 123.23 510.726 122.604ZM510.726 130.526C510.726 129.901 511.233 129.395 511.858 129.395H574.668C575.293 129.395 575.799 129.901 575.799 130.526C575.799 131.151 575.293 131.658 574.668 131.658H511.858C511.233 131.658 510.726 131.151 510.726 130.526ZM510.726 137.883C510.726 137.257 511.233 136.751 511.858 136.751H539.585C540.21 136.751 540.716 137.257 540.716 137.883C540.716 138.508 540.21 139.014 539.585 139.014H511.858C511.233 139.014 510.726 138.508 510.726 137.883Z" fill="#ebf5f6"></path>
<path d="M241.946 157.122H40.5023V142.41H241.946V157.122Z" fill="#4baeb4"></path>
<path d="M241.946 157.122H40.5023V142.41H241.946V157.122Z" fill="black" fill-opacity="0.3"></path>
<ellipse cx="140.452" cy="144.283" rx="20.1896" ry="3.78556" fill="#FFE458"></ellipse>
<ellipse cx="140.453" cy="144.283" rx="20.1896" ry="3.78556" fill="black" fill-opacity="0.2"></ellipse>
<path d="M168.213 106.111C168.213 120.571 158.749 144.282 138.874 144.282C119.947 144.282 109.536 120.571 109.536 106.111C109.536 91.6499 121.41 96.9622 138.874 96.9622C156.339 96.9622 168.213 91.6499 168.213 106.111Z" fill="#4baeb4"></path>
<path d="M168.213 106.111C168.213 120.571 158.749 144.282 138.874 144.282C119.947 144.282 109.536 120.571 109.536 106.111C109.536 91.6499 121.41 96.9622 138.874 96.9622C156.339 96.9622 168.213 91.6499 168.213 106.111Z" fill="#ebf5f6"></path>
<path d="M168.212 106.113C168.212 120.573 158.748 144.284 138.874 144.284C119.946 144.284 109.536 120.573 109.536 106.113C109.536 100.839 111.115 98.195 113.969 96.9642C113.969 96.9642 116.792 100.434 138.874 100.434C161.588 100.434 161.588 96.3198 161.588 96.3198C165.814 97.1083 168.212 99.6134 168.212 106.113Z" fill="#133e56"></path>
<path d="M138.874 144.284C158.749 144.284 168.213 120.573 168.213 106.113C168.213 99.6134 165.814 97.1083 161.588 96.3198C161.588 96.3198 161.588 97.9475 155.936 99.1553C155.936 99.1553 158.118 106.874 157.634 111.853C156.632 122.162 151.698 128.42 142.922 133.921C136.534 137.925 124.249 138.82 124.249 138.82C128.331 142.17 133.223 144.284 138.874 144.284Z" fill="black" fill-opacity="0.18"></path>
<path d="M141.083 119.677L146.001 130.56H136.166L141.083 119.677Z" fill="#133e56"></path>
<path d="M140.451 113.998C140.451 116.089 138.757 117.784 136.666 117.784C134.575 117.784 132.88 116.089 132.88 113.998C132.88 111.908 134.575 110.213 136.666 110.213C138.757 110.213 140.451 111.908 140.451 113.998Z" fill="#133e56"></path>
<path d="M150.546 113.998C150.546 116.089 148.851 117.784 146.761 117.784C144.67 117.784 142.975 116.089 142.975 113.998C142.975 111.908 144.67 110.213 146.761 110.213C148.851 110.213 150.546 111.908 150.546 113.998Z" fill="#133e56"></path>
<path d="M144.868 113.998C144.868 116.089 143.173 117.784 141.082 117.784C138.991 117.784 137.297 116.089 137.297 113.998C137.297 111.908 138.991 110.213 141.082 110.213C143.173 110.213 144.868 111.908 144.868 113.998Z" fill="#133e56"></path>
<path d="M141.789 189.838C141.789 189.838 142.009 188.431 141.789 187.575L142.921 186.443H144.053C144.053 186.443 147.917 179.391 151.409 175.692C152.053 175.01 152.469 174.682 153.107 173.995C155.152 171.792 155.566 169.952 157.634 167.77C160.126 165.139 163.955 165.585 164.99 162.112C165.495 160.417 164.99 157.585 164.99 157.585L164.424 147.4L163.292 146.268L163.858 145.137L164.424 121.371L166.687 122.502L165.556 145.137L166.687 157.181C166.687 157.181 167.23 160.264 166.687 162.112C165.627 165.722 161.847 165.537 159.331 168.336C156.996 170.935 156.865 173.388 154.238 175.692C153.408 176.421 152.794 176.648 151.975 177.39C149.474 179.653 147.448 184.746 147.448 184.746L146.316 187.575H144.619L143.487 188.141V189.838H141.789Z" fill="#2D3B12"></path>
<path d="M145.185 97.039L144.702 99.8683C144.702 99.8683 143.557 111.185 146.882 114.015C147.741 114.745 149.712 114.58 149.712 114.58L150.843 114.015L149.712 124.2L147.972 129.42L146.882 132.688L146.424 133.436L136.131 150.229L128.775 161.546L128.019 164.949L127.734 166.229C126.373 172.356 125.734 175.82 124.248 181.917C123.817 183.687 123.521 184.667 123.117 186.443C122.617 188.641 122.909 190.047 121.985 192.102C121.078 194.118 120.77 196.27 118.59 196.629C117.478 196.812 116.139 197.124 115.76 196.063C115.612 195.647 115.632 195.355 115.76 194.932C116.106 193.793 117.681 194.569 118.59 193.8C119.721 192.842 120.078 191.872 120.287 190.405C120.381 189.748 120.126 189.35 120.287 188.707C122.551 179.654 123.626 174.745 125.766 165.798L126.135 164.252C126.135 164.252 126.249 163.253 126.512 162.678C126.732 162.194 127.27 161.546 127.27 161.546L136.131 148.319L144.702 133.521C144.702 133.521 139.618 130.155 136.697 127.225C134.984 125.506 133.634 124.438 132.17 122.502C127.871 116.818 123.556 108.922 123.117 106.659C122.347 102.698 124.814 90.2488 124.814 90.2488L125.498 86.9119L126.422 82.4093L126.755 80.7863L127.61 76.6182L129.341 68.1805L131.604 67.0488L129.325 77.3019L128.852 79.4312L127.491 85.5592L126.538 89.8477L125.945 92.5122L124.814 105.114C124.814 105.114 125.709 105.949 125.945 106.659C128.209 113.449 129.955 117.097 134.433 122.502C136.063 124.469 137.124 125.254 138.96 127.029C141.286 129.277 145.185 132.688 145.185 132.688L146.724 128.924L148.194 125.332L149.145 116.843C149.145 116.843 146.941 115.639 145.75 114.58C139.63 109.141 144.619 93.6439 144.619 93.6439L146.316 92.5122C146.103 94.4896 145.185 97.039 145.185 97.039Z" fill="#2D3B12"></path>
<path d="M139.526 183.615C140.364 185.124 142.287 184.839 142.921 186.444H144.053L144.619 187.576L142.921 188.142L141.79 187.576C141.283 185.603 138.769 185.988 137.829 184.181C136.5 181.625 138.395 176.825 138.395 176.825C138.395 176.825 135.242 176.825 134.434 173.995C133.302 170.034 133.634 164.986 134.434 160.415C136.315 149.664 141.224 145.137 141.224 145.137C141.224 145.137 148.904 155.888 149.712 161.547C150.463 166.806 150.844 172.298 146.317 175.693C144.34 177.175 140.092 176.825 140.092 176.825C140.092 176.825 138.235 181.289 139.526 183.615Z" fill="#51641B"></path>
<path d="M151.41 175.693C151.41 175.693 150.78 171.816 151.41 169.469C152.077 166.98 154.246 166.326 154.805 163.81C155.188 162.084 154.805 159.283 154.805 159.283C154.805 159.283 152.61 158.688 152.541 157.586C152.461 156.3 155.371 155.888 155.371 155.888C155.371 155.888 160.175 150.257 164.424 149.664C165.502 149.513 167.099 149.61 167.635 149.649L167.819 149.098L182.618 128.287C179.802 126.987 174.829 124.697 171.214 123.069C167.246 121.282 165.182 119.846 161.029 118.542C160.546 118.391 160.092 118.208 159.658 118.015C158.729 120.401 157.634 123.635 157.634 123.635C157.634 123.635 155.957 119.476 154.805 116.844C154.762 116.748 154.72 116.652 154.677 116.559C154.354 116.61 154.021 116.703 153.673 116.844C150.651 118.074 149.712 124.201 149.712 124.201L147.972 129.421C150.574 130.539 152.517 131.96 151.975 133.254C151.68 133.96 149.135 133.439 146.424 133.437C145.851 133.437 145.271 133.46 144.702 133.522C143.647 133.638 142.635 133.891 141.79 134.386C140.569 135.102 140.294 136.178 138.96 136.65C135.667 137.815 135.097 131.468 131.604 131.557C126.148 131.696 126.512 144.572 126.512 144.572C126.512 144.572 121.965 158.894 125.946 160.981C126.444 161.242 127.271 161.547 127.271 161.547L126.512 162.679C126.512 162.679 123.83 161.84 123.117 160.415C121.985 158.152 123.398 150.631 124.814 144.572C126.15 138.854 125.542 134.352 129.907 130.425C130.728 129.686 131.215 129.283 132.17 128.728C133.563 127.917 134.838 127.479 136.132 127.291C137.049 127.158 137.976 127.15 138.96 127.225C139.845 127.293 140.776 127.427 141.79 127.596C143.313 127.85 145.085 128.323 146.725 128.925L148.194 125.333L150.278 120.239C150.278 120.239 151.862 117.051 153.107 115.147C153.262 114.91 153.41 114.676 153.554 114.446C152.655 112.912 151.812 111.61 151.41 109.489C150.957 107.1 151.892 106.023 150.844 103.83C149.757 101.557 146.317 99.3033 146.317 99.3033V97.6058L150.278 101.567C150.278 101.567 158.881 97.7107 162.161 101.001C163.744 102.589 164.21 104.201 164.359 106.219C169.117 106.327 173.375 110.105 177.439 114.015C180.633 117.089 182.847 122.895 183.962 126.397L185.927 123.635C185.927 123.635 183.583 117.953 185.361 115.147C186.284 113.689 187.212 113.088 188.756 112.317C193.57 109.914 197.823 113.188 201.77 116.844C203.037 118.017 203.636 118.808 204.6 120.239C206.594 123.2 209.127 127.596 207.995 128.727C207.1 129.622 203.591 124.265 200.073 122.503C197.574 121.251 196.052 119.864 193.283 120.239C190.304 120.644 187.058 124.766 187.058 124.766L184.542 128.338C184.71 128.942 184.795 129.294 184.795 129.294C184.795 129.294 184.542 129.176 184.096 128.97L169.517 149.664C171.064 151.653 172.02 152.702 173.478 154.756C175.145 157.106 178.57 161.041 177.439 160.981C175.741 160.89 173.478 158.152 173.478 158.152L166.688 157.182L165.556 157.02C165.556 157.02 165.415 157.021 165.176 157.028C164.278 157.055 161.985 157.164 160.463 157.586C158.841 158.036 157.536 157.955 156.502 159.283C155.408 160.689 156.405 162.091 155.936 163.81C155.286 166.194 153.107 169.469 153.107 169.469V173.995L151.41 175.693Z" fill="#51641B"></path>
<path d="M114.063 190.406C116.387 191.118 120.288 190.406 120.288 190.406V188.708C120.288 188.708 116.756 189.306 114.629 188.708C112.032 187.978 110.555 186.93 108.971 184.747C106.115 180.813 108.971 177.16 108.971 172.298C108.971 171.635 108.502 171.07 108.971 170.601C110.668 168.903 114.781 166.304 119.156 165.508C121.136 165.148 123.537 165.374 125.766 165.799C126.444 165.928 127.105 166.075 127.735 166.23C130.564 166.926 132.736 167.771 132.736 167.771V167.206C132.736 167.206 130.727 166.038 128.019 164.949C127.421 164.709 126.788 164.472 126.136 164.253C123.649 163.417 120.872 162.832 118.59 163.245C114.112 164.054 108.405 169.469 108.405 169.469C108.405 169.469 104.429 170.248 105.01 171.732C105.443 172.841 108.007 171.686 107.839 172.864C107.273 176.825 105.322 181.153 107.839 185.313C109.465 188 111.06 189.485 114.063 190.406Z" fill="#51641B"></path>
<path d="M151.975 79.4985C151.065 84.9653 146.91 87.0027 146.317 92.5131L144.619 93.6448L140.092 99.3033L137.829 103.264C137.829 103.264 133.178 93.0786 132.17 85.1565C131.472 79.6718 129.662 72.7078 131.604 68.7473L131.638 68.6793C132.459 67.0028 133.142 65.6109 134.999 65.3521C136.882 65.0899 137.224 66.1396 138.395 67.0497C140.281 68.5172 141.79 72.1424 141.79 72.1424C141.79 72.1424 143.755 69.1551 145.751 68.7473C147.805 68.3275 149.534 68.8077 150.844 70.4448C153.107 73.2741 152.541 76.1033 151.975 79.4985Z" fill="#51641B"></path>
<path d="M127.643 104.396C127.047 105.326 125.946 106.659 125.946 106.659L124.814 105.115C125.23 104.699 125.642 104.248 125.946 103.83C128.84 99.8484 127.457 93.1009 126.538 89.8485C126.213 88.6991 125.946 87.9862 125.946 87.9862L125.499 86.9128L123.117 81.196C123.117 81.196 116.953 79.7872 112.931 79.4985C105.847 78.9899 94.8239 81.196 94.8239 81.196C94.8239 81.196 105.586 76.1997 112.931 76.1033C116.907 76.0512 124.049 75.7912 127.61 76.6191C128.364 76.7942 128.957 77.018 129.326 77.3027C129.974 77.8026 129.931 78.4903 128.853 79.4321C128.827 79.4541 128.802 79.4762 128.775 79.4985C128.215 79.9727 127.374 80.4577 126.755 80.7871C126.287 81.0359 125.946 81.196 125.946 81.196C125.946 81.196 126.134 81.6382 126.422 82.4102C126.708 83.1738 127.092 84.26 127.491 85.56C129.081 90.7402 130.904 99.3145 127.643 104.396Z" fill="#51641B"></path>
<path d="M127.643 46.1131C126.603 54.694 129.341 68.1814 129.341 68.1814L131.604 67.0497L130.473 65.3521C130.473 65.3521 127.866 53.4935 129.341 46.1131C129.93 43.1657 131.604 38.757 131.604 38.757H136.132C136.132 38.757 142.172 37.3278 142.921 34.2302C143.841 30.4304 139.876 27.9984 136.132 26.8741C134.015 26.2386 132.68 26.9829 130.473 26.8741C126.009 26.6542 120.29 20.854 119.156 25.1766C118.403 28.0442 120.747 29.6138 122.551 31.9668C124.65 34.7065 129.341 37.6253 129.341 37.6253C129.341 37.6253 128.05 42.7574 127.643 46.1131Z" fill="#51641B"></path>
<path d="M139.526 183.615C140.364 185.124 142.287 184.84 142.921 186.445H144.053L144.619 187.576L142.921 188.142L141.79 187.576C141.283 185.603 138.769 185.989 137.829 184.181C136.5 181.625 138.395 176.825 138.395 176.825C138.395 176.825 141.898 169.457 142.356 164.376C142.755 159.953 141.224 153.059 141.224 153.059C141.224 153.059 143.042 159.909 142.921 164.376C142.787 169.36 140.092 176.825 140.092 176.825C140.092 176.825 138.235 181.289 139.526 183.615Z" fill="black" fill-opacity="0.2"></path>
<path d="M151.41 169.469C150.78 171.817 151.41 175.693 151.41 175.693L153.107 173.996V169.469C153.107 169.469 155.286 166.194 155.936 163.81C156.405 162.092 155.408 160.689 156.502 159.284C157.536 157.956 158.841 158.036 160.463 157.586C161.985 157.164 164.278 157.056 165.176 157.029C165.415 157.022 165.556 157.02 165.556 157.02L173.478 158.152C173.478 158.152 169.144 155.905 166.122 155.323C166.005 155.3 165.886 155.279 165.765 155.26C161.623 154.604 155.371 155.889 155.371 155.889C155.371 155.889 152.461 156.3 152.541 157.586C152.61 158.689 154.805 159.284 154.805 159.284C154.805 159.284 155.188 162.085 154.805 163.81C154.246 166.326 152.077 166.98 151.41 169.469Z" fill="black" fill-opacity="0.2"></path>
<path d="M167.819 149.664C167.819 149.664 167.753 149.658 167.635 149.65L167.819 149.098L182.618 128.287C179.802 126.987 174.829 124.697 171.214 123.07C167.246 121.282 165.182 119.846 161.029 118.543C160.546 118.391 160.092 118.208 159.658 118.016C158.729 120.401 157.634 123.635 157.634 123.635C157.634 123.635 155.957 119.476 154.805 116.845C154.762 116.748 154.72 116.653 154.677 116.559C154.354 116.611 154.021 116.703 153.673 116.845C150.651 118.074 149.712 124.201 149.712 124.201L148.194 129.294L146.317 128.728L148.194 125.333L150.278 120.24C150.278 120.24 151.862 117.051 153.107 115.147C153.262 114.91 153.41 114.677 153.554 114.446C152.655 112.912 151.812 111.61 151.41 109.489C150.957 107.101 151.892 106.023 150.844 103.831C149.757 101.557 146.317 99.3037 146.317 99.3037V97.6061L150.278 101.567L153.673 103.831L154.677 109.489L155.744 114.592C159.204 113.956 165.329 113.156 169.517 114.446C176.514 116.602 183.962 126.397 183.962 126.397L185.927 123.635C185.927 123.635 189.354 117.232 193.283 116.559C197.423 115.851 199.794 118.545 202.902 121.371C205.487 123.722 207.995 128.728 207.995 128.728C207.1 129.622 203.591 124.266 200.073 122.503C197.574 121.251 196.052 119.864 193.283 120.24C190.304 120.644 187.058 124.767 187.058 124.767L184.542 128.338C184.71 128.942 184.795 129.294 184.795 129.294C184.795 129.294 184.542 129.177 184.096 128.971L169.517 149.664H167.819Z" fill="black" fill-opacity="0.2"></path>
<path d="M114.063 190.406C116.387 191.118 120.288 190.406 120.288 190.406V188.708C120.288 188.708 116.756 189.307 114.629 188.708C112.032 187.978 110.555 186.93 108.971 184.747C106.115 180.813 108.971 177.16 108.971 172.299C108.971 171.636 108.502 171.07 108.971 170.601C110.668 168.904 114.781 166.305 119.156 165.508C121.136 165.148 123.537 165.375 125.766 165.799C126.444 165.928 127.105 166.076 127.735 166.23C130.564 166.926 132.736 167.771 132.736 167.771V167.206C132.736 167.206 130.727 166.038 128.019 164.95C127.421 164.709 126.788 164.473 126.136 164.253C123.649 163.417 120.872 162.833 118.59 163.245C114.112 164.054 108.405 169.469 108.405 169.469C108.405 169.469 104.429 170.249 105.01 171.733C105.443 172.841 108.007 171.687 107.839 172.865C107.273 176.825 105.322 181.154 107.839 185.313C109.465 188 111.06 189.486 114.063 190.406Z" fill="black" fill-opacity="0.2"></path>
<path d="M127.271 161.547L126.512 162.679C126.512 162.679 123.83 161.841 123.117 160.415C121.985 158.152 123.398 150.631 124.814 144.572C126.15 138.854 125.542 134.353 129.907 130.426C129.907 130.426 135.565 131.557 137.829 131.557C140.092 131.557 142.951 131.24 146.317 131.557C148.614 131.774 151.975 133.255 151.975 133.255C151.68 133.961 149.135 133.439 146.424 133.437C145.851 133.437 145.271 133.46 144.702 133.522C143.647 133.638 142.635 133.891 141.79 134.387C140.569 135.102 140.294 136.178 138.96 136.65C135.667 137.816 135.097 131.468 131.604 131.557C126.148 131.697 126.512 144.572 126.512 144.572C126.512 144.572 121.965 158.894 125.946 160.981C126.444 161.242 127.271 161.547 127.271 161.547Z" fill="black" fill-opacity="0.2"></path>
<path d="M127.643 104.396C127.047 105.326 125.946 106.66 125.946 106.66L124.814 105.116C125.23 104.699 125.642 104.248 125.946 103.831C128.84 99.8488 127.457 93.1013 126.538 89.8489C126.213 88.6995 125.946 87.9866 125.946 87.9866L123.117 81.1964C123.117 81.1964 116.953 79.7876 112.931 79.4988C105.847 78.9903 94.8239 81.1964 94.8239 81.1964C94.8239 81.1964 107.209 76.6692 115.195 77.8007C119.554 78.4184 125.946 81.1964 125.946 81.1964C125.946 81.1964 126.134 81.6386 126.422 82.4106C126.708 83.1742 127.092 84.2604 127.491 85.5604C129.081 90.7405 130.904 99.3149 127.643 104.396Z" fill="black" fill-opacity="0.2"></path>
<path d="M127.643 46.1135C126.603 54.6944 129.341 68.1818 129.341 68.1818L131.604 67.0501L130.473 65.3525C130.473 65.3525 127.866 53.4939 129.341 46.1135C129.93 43.1661 131.604 38.7574 131.604 38.7574L132.736 31.9672L130.473 26.8745V31.9672L129.341 37.6257C129.341 37.6257 128.05 42.7577 127.643 46.1135Z" fill="black" fill-opacity="0.2"></path>
<path d="M140.964 70.4452C141.479 71.3971 141.79 72.1428 141.79 72.1428C141.79 72.1428 142.237 71.4628 142.921 70.7074L141.79 83.4592L137.829 103.265L140.092 83.4592L140.964 70.4452Z" fill="black" fill-opacity="0.2"></path>
<path d="M93.6919 262.626C93.6919 262.626 93.9118 261.219 93.6919 260.363L94.8236 259.231H95.9556C95.9556 259.231 99.8193 252.179 103.312 248.48C103.955 247.798 104.371 247.469 105.009 246.782C107.054 244.579 107.469 242.739 109.536 240.558C112.029 237.927 115.857 238.373 116.892 234.899C117.397 233.205 116.892 230.372 116.892 230.372L116.326 220.187L115.195 219.056L115.76 217.924L116.326 194.158L118.59 195.289L117.458 217.924L118.59 229.968C118.59 229.968 119.132 233.051 118.59 234.899C117.53 238.51 113.749 238.325 111.234 241.124C108.898 243.722 108.767 246.175 106.141 248.48C105.31 249.208 104.697 249.436 103.878 250.177C101.376 252.44 99.3507 257.533 99.3507 257.533L98.2187 260.363H96.5214L95.3897 260.929V262.626H93.6919Z" fill="#2D3B12"></path>
<path d="M91.4284 256.403C92.2662 257.911 94.1886 257.627 94.8235 259.232H95.9555L96.5213 260.364L94.8235 260.929L93.6918 260.364C93.1849 258.39 90.6708 258.776 89.7308 256.968C88.4016 254.412 90.2967 249.612 90.2967 249.612C90.2967 249.612 87.1442 249.612 86.3357 246.783C85.2038 242.822 85.5358 237.774 86.3357 233.203C88.2172 222.451 93.126 217.925 93.126 217.925C93.126 217.925 100.806 228.676 101.614 234.334C102.365 239.594 102.746 245.086 98.2186 248.481C96.2421 249.963 91.9943 249.612 91.9943 249.612C91.9943 249.612 90.1367 254.076 91.4284 256.403Z" fill="#51641B"></path>
<path d="M103.312 248.481C103.312 248.481 102.682 244.604 103.312 242.256C103.979 239.767 106.148 239.113 106.707 236.598C107.09 234.872 106.707 232.071 106.707 232.071C106.707 232.071 104.512 231.476 104.443 230.373C104.363 229.087 107.273 228.676 107.273 228.676C107.273 228.676 112.077 223.044 116.326 222.451C117.404 222.301 119.001 222.398 119.538 222.437L119.721 221.886L134.52 201.075L135.864 199.185L137.829 196.422C137.829 196.422 135.485 190.741 137.263 187.934C138.186 186.476 139.114 185.876 140.658 185.105C145.472 182.701 149.725 185.975 153.672 189.632C154.939 190.805 155.538 191.596 156.502 193.027C158.496 195.988 161.029 200.384 159.897 201.515C159.002 202.41 155.493 197.053 151.975 195.29C149.476 194.038 147.955 192.651 145.185 193.027C142.206 193.431 138.96 197.554 138.96 197.554L136.444 201.126C136.612 201.729 136.697 202.081 136.697 202.081C136.697 202.081 136.444 201.964 135.998 201.758L121.419 222.451C122.966 224.44 123.922 225.489 125.38 227.544C127.047 229.894 130.473 233.829 129.341 233.768C127.643 233.678 125.38 230.939 125.38 230.939L118.59 229.969L117.458 229.807C117.458 229.807 117.317 229.809 117.078 229.816C116.18 229.843 113.887 229.951 112.365 230.373C110.744 230.823 109.438 230.743 108.404 232.071C107.31 233.477 108.307 234.879 107.838 236.598C107.188 238.981 105.009 242.256 105.009 242.256V246.783L103.312 248.481Z" fill="#51641B"></path>
<path d="M91.4284 256.403C92.2662 257.912 94.1886 257.627 94.8235 259.232H95.9555L96.5213 260.364L94.8235 260.93L93.6918 260.364C93.1849 258.391 90.6708 258.776 89.7308 256.969C88.4016 254.413 90.2967 249.613 90.2967 249.613C90.2967 249.613 93.7999 242.245 94.2579 237.164C94.6566 232.74 93.1259 225.847 93.1259 225.847C93.1259 225.847 94.9442 232.697 94.8235 237.164C94.6889 242.148 91.9942 249.613 91.9942 249.613C91.9942 249.613 90.1367 254.077 91.4284 256.403Z" fill="black" fill-opacity="0.2"></path>
<path d="M103.312 242.257C102.682 244.604 103.312 248.481 103.312 248.481L105.009 246.784V242.257C105.009 242.257 107.188 238.982 107.838 236.598C108.307 234.879 107.31 233.477 108.404 232.071C109.438 230.743 110.744 230.824 112.365 230.374C113.887 229.952 116.18 229.843 117.078 229.817C117.317 229.809 117.458 229.808 117.458 229.808L125.38 230.94C125.38 230.94 121.046 228.692 118.024 228.11C117.907 228.088 117.788 228.067 117.667 228.048C113.526 227.391 107.273 228.676 107.273 228.676C107.273 228.676 104.363 229.088 104.443 230.374C104.512 231.477 106.707 232.071 106.707 232.071C106.707 232.071 107.09 234.872 106.707 236.598C106.148 239.114 103.979 239.768 103.312 242.257Z" fill="black" fill-opacity="0.2"></path>
<path d="M100.482 174.353C100.482 174.353 100.702 172.945 100.482 172.089L101.614 170.957H102.746C102.746 170.957 106.61 163.905 110.102 160.206C110.746 159.524 111.162 159.196 111.8 158.509C113.845 156.306 114.259 154.466 116.327 152.284C118.819 149.653 122.648 150.099 123.683 146.626C124.187 144.931 123.683 142.099 123.683 142.099L123.117 131.914L121.985 130.782L122.551 129.651L123.117 105.885L125.38 107.016L124.248 129.651L125.38 141.695C125.38 141.695 125.923 144.778 125.38 146.626C124.32 150.236 120.54 150.051 118.024 152.85C115.688 155.449 115.558 157.902 112.931 160.206C112.101 160.935 111.487 161.163 110.668 161.904C108.166 164.167 106.141 169.26 106.141 169.26L105.009 172.089H103.312L102.18 172.655V174.353H100.482Z" fill="#2D3B12"></path>
<path d="M98.2189 168.13C99.0567 169.639 100.979 169.354 101.614 170.959H102.746L103.312 172.091L101.614 172.656L100.482 172.091C99.9754 170.117 97.4612 170.503 96.5213 168.695C95.1921 166.139 97.0872 161.339 97.0872 161.339C97.0872 161.339 93.9347 161.339 93.1262 158.51C91.9943 154.549 92.3262 149.501 93.1262 144.93C95.0077 134.178 99.9164 129.652 99.9164 129.652C99.9164 129.652 107.596 140.403 108.404 146.061C109.156 151.321 109.536 156.813 105.009 160.208C103.033 161.69 98.7847 161.339 98.7847 161.339C98.7847 161.339 96.9271 165.803 98.2189 168.13Z" fill="#51641B"></path>
<path d="M110.102 160.208C110.102 160.208 109.472 156.331 110.102 153.983C110.77 151.494 112.938 150.84 113.497 148.325C113.881 146.599 113.497 143.798 113.497 143.798C113.497 143.798 111.302 143.203 111.234 142.1C111.154 140.814 114.063 140.403 114.063 140.403C114.063 140.403 118.867 134.771 123.117 134.178C124.195 134.028 125.791 134.125 126.328 134.164L126.512 133.613L141.311 112.802L142.655 110.912L144.619 108.149C144.619 108.149 142.276 102.468 144.053 99.6614C144.977 98.2033 145.904 97.6031 147.448 96.8322C152.263 94.4283 156.515 97.7022 160.463 101.359C161.729 102.532 162.328 103.323 163.292 104.754C165.287 107.715 167.819 112.111 166.687 113.242C165.792 114.137 162.283 108.78 158.765 107.018C156.266 105.765 154.745 104.378 151.975 104.754C148.997 105.158 145.751 109.281 145.751 109.281L143.234 112.853C143.402 113.456 143.487 113.808 143.487 113.808C143.487 113.808 143.235 113.691 142.789 113.485L128.209 134.178C129.756 136.167 130.712 137.216 132.17 139.271C133.837 141.621 137.263 145.556 136.131 145.496C134.434 145.405 132.17 142.666 132.17 142.666L125.38 141.696L124.248 141.535C124.248 141.535 124.108 141.536 123.868 141.543C122.97 141.57 120.678 141.678 119.156 142.1C117.534 142.55 116.228 142.47 115.195 143.798C114.1 145.204 115.098 146.606 114.629 148.325C113.979 150.708 111.8 153.983 111.8 153.983V158.51L110.102 160.208Z" fill="#51641B"></path>
<path d="M98.2189 168.13C99.0567 169.639 100.979 169.354 101.614 170.959H102.746L103.312 172.091L101.614 172.657L100.482 172.091C99.9754 170.118 97.4612 170.504 96.5213 168.696C95.192 166.14 97.0872 161.34 97.0872 161.34C97.0872 161.34 100.59 153.972 101.048 148.891C101.447 144.467 99.9164 137.574 99.9164 137.574C99.9164 137.574 101.735 144.424 101.614 148.891C101.479 153.875 98.7847 161.34 98.7847 161.34C98.7847 161.34 96.9271 165.804 98.2189 168.13Z" fill="black" fill-opacity="0.2"></path>
<path d="M110.102 153.984C109.472 156.332 110.102 160.208 110.102 160.208L111.8 158.511V153.984C111.8 153.984 113.979 150.709 114.629 148.325C115.098 146.606 114.1 145.204 115.195 143.798C116.228 142.47 117.534 142.551 119.156 142.101C120.678 141.679 122.97 141.57 123.868 141.544C124.108 141.536 124.248 141.535 124.248 141.535L132.17 142.667C132.17 142.667 127.837 140.419 124.814 139.837C124.697 139.815 124.578 139.794 124.458 139.775C120.316 139.118 114.063 140.403 114.063 140.403C114.063 140.403 111.154 140.815 111.234 142.101C111.302 143.204 113.497 143.798 113.497 143.798C113.497 143.798 113.881 146.6 113.497 148.325C112.938 150.841 110.77 151.495 110.102 153.984Z" fill="black" fill-opacity="0.2"></path>
<path d="M108.404 134.743C108.404 134.743 108.624 133.336 108.404 132.48L109.536 131.348H110.668C110.668 131.348 114.532 124.296 118.024 120.597C118.668 119.915 119.084 119.586 119.722 118.899C121.766 116.696 122.181 114.857 124.248 112.675C126.741 110.044 130.569 110.49 131.605 107.016C132.109 105.322 131.605 102.49 131.605 102.49L131.039 92.3046L129.907 91.1729L130.473 90.0412L131.039 66.2754L133.302 67.4066L132.17 90.0412L133.302 102.085C133.302 102.085 133.845 105.169 133.302 107.016C132.242 110.627 128.462 110.442 125.946 113.241C123.61 115.839 123.48 118.292 120.853 120.597C120.023 121.326 119.409 121.553 118.59 122.294C116.088 124.557 114.063 129.65 114.063 129.65L112.931 132.48H111.234L110.102 133.046V134.743H108.404Z" fill="#2D3B12"></path>
<path d="M106.141 128.52C106.979 130.029 108.901 129.744 109.536 131.349H110.668L111.234 132.481L109.536 133.047L108.404 132.481C107.897 130.507 105.383 130.893 104.443 129.086C103.114 126.529 105.009 121.73 105.009 121.73C105.009 121.73 101.857 121.73 101.048 118.9C99.9162 114.939 100.248 109.891 101.048 105.32C102.93 94.5686 107.838 90.0418 107.838 90.0418C107.838 90.0418 115.518 100.793 116.326 106.451C117.078 111.711 117.458 117.203 112.931 120.598C110.954 122.08 106.707 121.73 106.707 121.73C106.707 121.73 104.849 126.193 106.141 128.52Z" fill="#51641B"></path>
<path d="M118.024 120.598C118.024 120.598 117.394 116.721 118.024 114.373C118.692 111.884 120.86 111.231 121.419 108.715C121.803 106.989 121.419 104.188 121.419 104.188C121.419 104.188 119.224 103.593 119.156 102.491C119.076 101.204 121.985 100.793 121.985 100.793C121.985 100.793 126.789 95.1615 131.039 94.5686C132.117 94.4182 133.713 94.5147 134.25 94.5541L134.434 94.0027L149.233 73.1918L150.577 71.3018L152.541 68.5394C152.541 68.5394 150.198 62.8582 151.975 60.0516C152.899 58.5934 153.826 57.9933 155.37 57.2223C160.185 54.8185 164.437 58.0923 168.385 61.7491C169.651 62.922 170.25 63.7128 171.214 65.1442C173.208 68.1053 175.741 72.5008 174.609 73.632C173.714 74.5267 170.205 69.17 166.687 67.4077C164.188 66.1556 162.667 64.7684 159.897 65.1442C156.919 65.5483 153.673 69.6711 153.673 69.6711L151.156 73.2427C151.324 73.8464 151.409 74.1984 151.409 74.1984C151.409 74.1984 151.156 74.0812 150.711 73.875L136.131 94.5686C137.678 96.5574 138.634 97.6063 140.092 99.6613C141.759 102.011 145.185 105.946 144.053 105.886C142.356 105.795 140.092 103.056 140.092 103.056L133.302 102.086L132.17 101.925C132.17 101.925 132.03 101.926 131.79 101.933C130.892 101.96 128.6 102.068 127.078 102.491C125.456 102.94 124.15 102.86 123.117 104.188C122.022 105.594 123.02 106.996 122.551 108.715C121.901 111.098 119.722 114.373 119.722 114.373V118.9L118.024 120.598Z" fill="#51641B"></path>
<path d="M106.141 128.52C106.979 130.029 108.901 129.745 109.536 131.35H110.668L111.234 132.481L109.536 133.047L108.404 132.481C107.897 130.508 105.383 130.894 104.443 129.086C103.114 126.53 105.009 121.73 105.009 121.73C105.009 121.73 108.512 114.362 108.97 109.281C109.369 104.858 107.838 97.9642 107.838 97.9642C107.838 97.9642 109.657 104.814 109.536 109.281C109.401 114.265 106.707 121.73 106.707 121.73C106.707 121.73 104.849 126.194 106.141 128.52Z" fill="black" fill-opacity="0.2"></path>
<path d="M118.024 114.374C117.394 116.722 118.024 120.598 118.024 120.598L119.722 118.901V114.374C119.722 114.374 121.901 111.099 122.551 108.715C123.02 106.997 122.022 105.594 123.117 104.189C124.15 102.861 125.456 102.941 127.078 102.491C128.6 102.069 130.892 101.961 131.79 101.934C132.03 101.927 132.17 101.925 132.17 101.925L140.092 103.057C140.092 103.057 135.759 100.81 132.736 100.228C132.619 100.205 132.5 100.184 132.38 100.165C128.238 99.5085 121.985 100.793 121.985 100.793C121.985 100.793 119.076 101.205 119.156 102.491C119.224 103.594 121.419 104.189 121.419 104.189C121.419 104.189 121.803 106.99 121.419 108.715C120.86 111.231 118.692 111.885 118.024 114.374Z" fill="black" fill-opacity="0.2"></path>
<path d="M376.619 328.01H390.199V382.332H376.619V328.01Z" fill="#4baeb4"></path>
<path d="M332.483 342.722H346.063V382.331H332.483V342.722Z" fill="#4baeb4"></path>
<path d="M420.755 308.771H434.336V382.331H420.755V308.771Z" fill="#4baeb4"></path>
<path d="M464.892 286.137H478.473V382.332H464.892V286.137Z" fill="#4baeb4"></path>
<path d="M507.897 260.107H521.477V382.331H507.897V260.107Z" fill="#4baeb4"></path>
<path d="M486.96 275.385L466.59 252.751L494.316 249.921L486.96 275.385Z" fill="#4baeb4"></path>
<path d="M392.004 239.616H156.224C145.373 239.616 136.576 248.413 136.576 259.264V370.605C136.576 381.456 145.373 390.253 156.224 390.253H182.422H232.787H392.004C402.856 390.253 411.652 381.456 411.652 370.605V259.264C411.652 248.413 402.856 239.616 392.004 239.616Z" fill="#133e56"></path>
<path d="M392.004 239.617H156.224C145.373 239.617 136.576 248.414 136.576 259.265V370.606C136.576 381.457 145.373 390.254 156.224 390.254H182.422H232.787H392.004C402.856 390.254 411.652 381.457 411.652 370.606V259.265C411.652 248.414 402.856 239.617 392.004 239.617Z" fill="black" fill-opacity="0.2"></path>
<path d="M388.731 235.209H152.951C142.099 235.209 133.302 244.006 133.302 254.858V366.198C133.302 377.05 142.099 385.847 152.951 385.847H179.148H229.514H388.731C399.582 385.847 408.379 377.05 408.379 366.198V254.858C408.379 244.006 399.582 235.209 388.731 235.209Z" fill="#133e56"></path>
<path fill-rule="evenodd" clip-rule="evenodd" d="M189.887 267.463C189.887 265.9 191.154 264.634 192.717 264.634H368.131C369.694 264.634 370.96 265.9 370.96 267.463C370.96 269.026 369.694 270.292 368.131 270.292H192.717C191.154 270.292 189.887 269.026 189.887 267.463ZM189.887 278.78C189.887 277.218 191.154 275.951 192.717 275.951H303.058C304.62 275.951 305.887 277.218 305.887 278.78C305.887 280.343 304.62 281.609 303.058 281.609H192.717C191.154 281.609 189.887 280.343 189.887 278.78ZM189.887 302.546C189.887 300.983 191.154 299.717 192.717 299.717H368.131C369.694 299.717 370.96 300.983 370.96 302.546C370.96 304.108 369.694 305.375 368.131 305.375H192.717C191.154 305.375 189.887 304.108 189.887 302.546ZM189.887 313.297C189.887 311.735 191.154 310.468 192.717 310.468H303.058C304.62 310.468 305.887 311.735 305.887 313.297C305.887 314.86 304.62 316.126 303.058 316.126H192.717C191.154 316.126 189.887 314.86 189.887 313.297ZM189.887 337.063C189.887 335.5 191.154 334.234 192.717 334.234H368.131C369.694 334.234 370.96 335.5 370.96 337.063C370.96 338.626 369.694 339.892 368.131 339.892H192.717C191.154 339.892 189.887 338.626 189.887 337.063ZM189.887 348.38C189.887 346.817 191.154 345.551 192.717 345.551H264.014C265.577 345.551 266.843 346.817 266.843 348.38C266.843 349.943 265.577 351.209 264.014 351.209H192.717C191.154 351.209 189.887 349.943 189.887 348.38Z" fill="#4baeb4"></path>
<path d="M150.278 268.029C150.278 266.154 151.798 264.634 153.673 264.634H168.385C170.26 264.634 171.78 266.154 171.78 268.029V280.478C171.78 282.353 170.26 283.873 168.385 283.873H153.673C151.798 283.873 150.278 282.353 150.278 280.478V268.029Z" fill="#4baeb4"></path>
<path d="M150.278 301.98C150.278 300.105 151.798 298.585 153.673 298.585H168.385C170.26 298.585 171.78 300.105 171.78 301.98V314.429C171.78 316.304 170.26 317.824 168.385 317.824H153.673C151.798 317.824 150.278 316.304 150.278 314.429V301.98Z" fill="#4baeb4"></path>
<path d="M151.41 335.931C151.41 334.056 152.93 332.536 154.805 332.536H169.517C171.392 332.536 172.912 334.056 172.912 335.931V348.38C172.912 350.255 171.392 351.775 169.517 351.775H154.805C152.93 351.775 151.41 350.255 151.41 348.38V335.931Z" fill="#4baeb4"></path>
</svg>